<svg width="148" height="43" viewBox="0 0 148 43" fill="none" xmlns="http://www.w3.org/2000/svg" xmlns:xlink="http://www.w3.org/1999/xlink">
<rect width="32" height="43" fill="url(#pattern0)"/>
<path d="M40.8706 30C40.6873 30 40.5373 29.9417 40.4206 29.825C40.3039 29.7083 40.2456 29.5583 40.2456 29.375V13.125C40.2456 12.9417 40.3039 12.7917 40.4206 12.675C40.5539 12.5583 40.7039 12.5 40.8706 12.5H44.0956C44.2789 12.5 44.4289 12.5583 44.5456 12.675C44.6789 12.7917 44.7456 12.9417 44.7456 13.125V19.15H50.8956V13.125C50.8956 12.9417 50.9539 12.7917 51.0706 12.675C51.1873 12.5583 51.3373 12.5 51.5206 12.5H54.7456C54.9289 12.5 55.0789 12.5583 55.1956 12.675C55.3123 12.7917 55.3706 12.9417 55.3706 13.125V29.375C55.3706 29.5583 55.3123 29.7083 55.1956 29.825C55.0789 29.9417 54.9289 30 54.7456 30H51.5206C51.3373 30 51.1873 29.9417 51.0706 29.825C50.9539 29.7083 50.8956 29.5583 50.8956 29.375V23.15H44.7456V29.375C44.7456 29.5583 44.6789 29.7083 44.5456 29.825C44.4289 29.9417 44.2789 30 44.0956 30H40.8706ZM57.8735 30C57.7402 30 57.6152 29.95 57.4985 29.85C57.3985 29.7333 57.3485 29.6083 57.3485 29.475C57.3485 29.375 57.3569 29.3 57.3735 29.25L63.2485 13.2C63.2985 13 63.4069 12.8333 63.5735 12.7C63.7402 12.5667 63.9569 12.5 64.2235 12.5H67.9235C68.1902 12.5 68.4069 12.5667 68.5735 12.7C68.7402 12.8333 68.8485 13 68.8985 13.2L74.7485 29.25L74.7985 29.475C74.7985 29.6083 74.7402 29.7333 74.6235 29.85C74.5235 29.95 74.3985 30 74.2485 30H71.1735C70.7735 30 70.5069 29.825 70.3735 29.475L69.3985 26.925H62.7235L61.7735 29.475C61.6402 29.825 61.3652 30 60.9485 30H57.8735ZM68.3985 23.325L66.0735 16.725L63.7485 23.325H68.3985ZM83.5778 30.25C81.1945 30.25 79.3278 29.675 77.9778 28.525C76.6445 27.3583 75.9362 25.675 75.8528 23.475C75.8362 23.025 75.8278 22.2917 75.8278 21.275C75.8278 20.2417 75.8362 19.4917 75.8528 19.025C75.9362 16.8583 76.6612 15.1917 78.0278 14.025C79.3945 12.8417 81.2445 12.25 83.5778 12.25C85.0445 12.25 86.3612 12.5 87.5278 13C88.6945 13.4833 89.6112 14.1833 90.2778 15.1C90.9612 16 91.3112 17.0583 91.3278 18.275V18.325C91.3278 18.4583 91.2695 18.575 91.1528 18.675C91.0528 18.7583 90.9362 18.8 90.8028 18.8H87.4278C87.2112 18.8 87.0445 18.7583 86.9278 18.675C86.8112 18.575 86.7112 18.4 86.6278 18.15C86.3945 17.3 86.0278 16.7083 85.5278 16.375C85.0278 16.025 84.3695 15.85 83.5528 15.85C81.5862 15.85 80.5695 16.95 80.5028 19.15C80.4862 19.6 80.4778 20.2917 80.4778 21.225C80.4778 22.1583 80.4862 22.8667 80.5028 23.35C80.5695 25.55 81.5862 26.65 83.5528 26.65C84.3695 26.65 85.0362 26.475 85.5528 26.125C86.0695 25.7583 86.4278 25.1667 86.6278 24.35C86.6945 24.1 86.7862 23.9333 86.9028 23.85C87.0195 23.75 87.1945 23.7 87.4278 23.7H90.8028C90.9528 23.7 91.0778 23.75 91.1778 23.85C91.2945 23.95 91.3445 24.075 91.3278 24.225C91.3112 25.4417 90.9612 26.5083 90.2778 27.425C89.6112 28.325 88.6945 29.025 87.5278 29.525C86.3612 30.0083 85.0445 30.25 83.5778 30.25ZM94.5815 30C94.4149 30 94.2649 29.9417 94.1315 29.825C94.0149 29.6917 93.9565 29.5417 93.9565 29.375V13.125C93.9565 12.9417 94.0149 12.7917 94.1315 12.675C94.2649 12.5583 94.4149 12.5 94.5815 12.5H97.7315C97.9149 12.5 98.0649 12.5583 98.1815 12.675C98.2982 12.7917 98.3565 12.9417 98.3565 13.125V18.675L102.982 12.975C103.182 12.6583 103.507 12.5 103.957 12.5H107.557C107.707 12.5 107.832 12.5583 107.932 12.675C108.032 12.775 108.082 12.8917 108.082 13.025C108.082 13.1417 108.057 13.2417 108.007 13.325L102.007 20.875L108.457 29.175C108.523 29.2417 108.557 29.3417 108.557 29.475C108.557 29.6083 108.507 29.7333 108.407 29.85C108.307 29.95 108.182 30 108.032 30H104.307C103.907 30 103.573 29.8333 103.307 29.5L98.3565 23.325V29.375C98.3565 29.5583 98.2982 29.7083 98.1815 29.825C98.0649 29.9417 97.9149 30 97.7315 30H94.5815ZM117.786 30.25C115.436 30.25 113.594 29.675 112.261 28.525C110.944 27.375 110.286 25.6417 110.286 23.325V13.125C110.286 12.9417 110.344 12.7917 110.461 12.675C110.594 12.5583 110.744 12.5 110.911 12.5H114.136C114.319 12.5 114.469 12.5583 114.586 12.675C114.719 12.7917 114.786 12.9417 114.786 13.125V23.3C114.786 24.3833 115.036 25.2 115.536 25.75C116.053 26.2833 116.794 26.55 117.761 26.55C118.711 26.55 119.444 26.275 119.961 25.725C120.478 25.175 120.736 24.3667 120.736 23.3V13.125C120.736 12.9417 120.794 12.7917 120.911 12.675C121.044 12.5583 121.194 12.5 121.361 12.5H124.611C124.794 12.5 124.944 12.5583 125.061 12.675C125.178 12.7917 125.236 12.9417 125.236 13.125V23.325C125.236 25.6417 124.569 27.375 123.236 28.525C121.919 29.675 120.103 30.25 117.786 30.25ZM129.176 30C129.01 30 128.86 29.9417 128.726 29.825C128.61 29.6917 128.551 29.5417 128.551 29.375V13.125C128.551 12.9417 128.61 12.7917 128.726 12.675C128.86 12.5583 129.01 12.5 129.176 12.5H131.876C132.276 12.5 132.568 12.6833 132.751 13.05L137.151 20.925L141.551 13.05C141.735 12.6833 142.026 12.5 142.426 12.5H145.101C145.285 12.5 145.435 12.5583 145.551 12.675C145.685 12.7917 145.751 12.9417 145.751 13.125V29.375C145.751 29.5583 145.685 29.7083 145.551 29.825C145.435 29.9417 145.285 30 145.101 30H142.126C141.943 30 141.785 29.9417 141.651 29.825C141.535 29.7083 141.476 29.5583 141.476 29.375V20L138.676 25.225C138.46 25.6083 138.168 25.8 137.801 25.8H136.501C136.285 25.8 136.11 25.75 135.976 25.65C135.843 25.55 135.726 25.4083 135.626 25.225L132.801 20V29.375C132.801 29.5417 132.743 29.6917 132.626 29.825C132.51 29.9417 132.36 30 132.176 30H129.176Z" fill="#00AA82"/>
<defs>
<pattern id="pattern0" patternContentUnits="objectBoundingBox" width="1" height="1">
<use xlink:href="#image0" transform="translate(-0.0065345) scale(0.00191145 0.00142248)"/>
</pattern>
</defs>
</svg>
